<svg width="8" height="1" viewBox="0 0 25 21" fill="none" xmlns="http://www.w3.org/2000/svg">
<path d="M12.4988 20.3L2.86215 10.6634C2.09347 9.89468 1.58101 9.00101 1.32479 7.98235C1.07481 6.9637 1.07793 5.95129 1.33416 4.94513C1.59039 3.93273 2.09972 3.05156 2.86215 2.30163C3.64332 1.53295 4.53387 1.02362 5.53378 0.773641C6.53993 0.517414 7.54297 0.517414 8.54287 0.773641C9.54903 1.02987 10.4427 1.5392 11.2239 2.30163L12.4988 3.53901L13.7736 2.30163C14.5611 1.5392 15.4547 1.02987 16.4546 0.773641C17.4546 0.517414 18.4545 0.517414 19.4544 0.773641C20.4605 1.02362 21.3542 1.53295 22.1354 2.30163C22.8978 3.05156 23.4071 3.93273 23.6634 4.94513C23.9196 5.95129 23.9196 6.9637 23.6634 7.98235C23.4134 9.00101 22.9041 9.89468 22.1354 10.6634L12.4988 20.3ZM12.4988 15.9504L19.9606 8.48856C20.323 8.12609 20.5636 7.70113 20.6824 7.21367C20.8074 6.72622 20.8105 6.23876 20.6918 5.75131C20.5793 5.26385 20.3418 4.84514 19.9793 4.49517C19.5981 4.12021 19.1638 3.87336 18.6763 3.75462C18.1951 3.62963 17.7108 3.62963 17.2233 3.75462C16.7421 3.87961 16.3078 4.12958 15.9203 4.50455L12.4988 7.82299L9.0772 4.50455C8.68974 4.12958 8.25228 3.87961 7.76482 3.75462C7.28361 3.62963 6.79928 3.62963 6.31183 3.75462C5.83062 3.87336 5.39941 4.12021 5.0182 4.49517C4.66198 4.84514 4.4245 5.26385 4.30576 5.75131C4.18702 6.23876 4.18702 6.72622 4.30576 7.21367C4.43075 7.70113 4.67448 8.12609 5.03695 8.48856L12.4988 15.9504Z" fill="#CCCCCC"/>
</svg>
